<?xml version="1.0" encoding="UTF-8"?>
<svg id="uuid-c0985ace-e26c-4893-89a1-d16c266b37dc" data-name="Calque 1" xmlns="http://www.w3.org/2000/svg" viewBox="0 0 50 50">
  <defs>
    <style>
      .uuid-1329c206-5be0-484d-82d5-69c05329c7b0 {
        fill: #f1f0f0;
      }

      .uuid-60880041-b31a-4fc6-a552-bfa6fd36b33f {
        fill: #f90805;
      }

      .uuid-a4a0df9a-7149-4ff1-8fb6-e817ef20198c {
        fill: #0437a0;
      }
    </style>
  </defs>
  <g>
    <path class="uuid-a4a0df9a-7149-4ff1-8fb6-e817ef20198c" d="M39.3,30.26l4.98,3.32c.47-1.06.85-2.17,1.15-3.32h-6.13Z"/>
    <path class="uuid-a4a0df9a-7149-4ff1-8fb6-e817ef20198c" d="M40.55,39.25l-11.46-7.64v14.1c4.5-.88,8.47-3.21,11.46-6.46Z"/>
    <path class="uuid-a4a0df9a-7149-4ff1-8fb6-e817ef20198c" d="M39.3,19.35h6.03c-.31-1.12-.71-2.19-1.19-3.23l-4.84,3.23Z"/>
    <path class="uuid-a4a0df9a-7149-4ff1-8fb6-e817ef20198c" d="M40.33,10.51c-2.96-3.13-6.85-5.35-11.24-6.22v13.71l11.24-7.49Z"/>
    <path class="uuid-a4a0df9a-7149-4ff1-8fb6-e817ef20198c" d="M9.67,10.5l11.24,7.49V4.29c-4.39.86-8.28,3.09-11.24,6.22Z"/>
    <path class="uuid-a4a0df9a-7149-4ff1-8fb6-e817ef20198c" d="M5.86,16.13c-.48,1.03-.88,2.11-1.19,3.23h6.03l-4.84-3.23Z"/>
    <path class="uuid-a4a0df9a-7149-4ff1-8fb6-e817ef20198c" d="M20.91,45.71v-14.1l-11.46,7.64c2.98,3.25,6.96,5.57,11.46,6.46Z"/>
    <path class="uuid-a4a0df9a-7149-4ff1-8fb6-e817ef20198c" d="M10.7,30.26h-6.12c.29,1.15.67,2.26,1.15,3.32l4.98-3.32Z"/>
  </g>
  <path class="uuid-1329c206-5be0-484d-82d5-69c05329c7b0" d="M40.33,10.51l-11.24,7.49V4.29c-1.32-.26-2.69-.4-4.09-.4s-2.77.14-4.09.4v13.71l-11.24-7.49c-1.56,1.65-2.85,3.54-3.81,5.62l4.84,3.23h-6.03c-.5,1.8-.79,3.69-.79,5.65,0,1.82.25,3.57.69,5.26h6.12l-4.98,3.32c.93,2.1,2.2,4.01,3.74,5.68l11.46-7.64v14.1c1.32.26,2.69.4,4.09.4s2.77-.14,4.09-.4v-14.1l11.46,7.64c1.53-1.67,2.8-3.58,3.74-5.67l-4.98-3.32h6.13c.43-1.68.69-3.44.69-5.26,0-1.96-.29-3.85-.79-5.65h-6.03l4.84-3.23c-.97-2.08-2.26-3.98-3.81-5.62Z"/>
  <g>
    <path class="uuid-60880041-b31a-4fc6-a552-bfa6fd36b33f" d="M27.55,4.05c-.84-.1-1.69-.17-2.55-.17s-1.71.07-2.55.17v17.35H4.21c-.2,1.17-.33,2.37-.33,3.6,0,1.09.11,2.16.27,3.21h18.29v17.74c.84.1,1.69.17,2.55.17s1.72-.07,2.55-.17v-17.74h18.29c.16-1.05.27-2.12.27-3.21,0-1.23-.13-2.43-.33-3.6h-18.23V4.05Z"/>
    <path class="uuid-60880041-b31a-4fc6-a552-bfa6fd36b33f" d="M8.09,37.61l11.03-7.35h-4.59l-7.84,5.22c.42.74.9,1.45,1.4,2.13Z"/>
    <path class="uuid-60880041-b31a-4fc6-a552-bfa6fd36b33f" d="M41.91,37.61c.51-.68.98-1.39,1.4-2.13l-7.84-5.22h-4.59l11.03,7.35Z"/>
    <path class="uuid-60880041-b31a-4fc6-a552-bfa6fd36b33f" d="M8.28,12.13c-.52.67-.99,1.38-1.43,2.11l7.67,5.11h4.59l-10.83-7.22Z"/>
    <path class="uuid-60880041-b31a-4fc6-a552-bfa6fd36b33f" d="M30.88,19.35h4.59l7.67-5.11c-.44-.73-.91-1.44-1.43-2.11l-10.83,7.22Z"/>
  </g>
</svg>