<svg viewBox="0 0 286 40" xmlns="http://www.w3.org/2000/svg" aria-label="Delphine Taverne" role="img">
  <defs>
    <style>
      .logo-path {
        fill: #faebe3;
      }
    </style>
  </defs>
  <g>
    <path class="logo-path" d="M27.67,16.88c0,6.81-4.39,11.13-11.16,11.13h-7.04c-.65,0-1.02-.37-1.02-1.02V6.76c0-.65.37-1.02,1.02-1.02h7.04c6.77,0,11.16,4.33,11.16,11.13ZM12.97,24.06h3.39c3.99,0,6.76-2.32,6.76-7.19s-2.77-7.19-6.76-7.19h-3.39v14.37Z"/>
    <path class="logo-path" d="M39.28,24.91c1.89,0,3.36-.54,4.68-1.57.51-.4,1-.38,1.45.06l.78.78c.46.46.49.99.03,1.45-1.72,1.64-3.91,2.77-6.92,2.77-5.63,0-9.37-3.8-9.37-8.62s3.85-8.62,8.95-8.62,8.63,3.74,8.63,8.33c0,.21-.02.45-.03.67-.06.62-.48.92-1.1.92h-12.04c.38,2.29,2.29,3.83,4.93,3.83ZM34.46,17.96h8.55c-.48-1.96-2.04-3.32-4.17-3.32s-3.8,1.32-4.39,3.32Z"/>
    <path class="logo-path" d="M51.75,4.79h2.34c.65,0,1.02.37,1.02,1.02v21.18c0,.65-.37,1.02-1.02,1.02h-2.34c-.65,0-1.02-.37-1.02-1.02V5.81c0-.65.37-1.02,1.02-1.02Z"/>
    <path class="logo-path" d="M69.24,28.39c-2.31,0-4.18-.89-5.49-2.35v8.33c0,.65-.37,1.02-1.02,1.02h-2.29c-.65,0-1.02-.37-1.02-1.02V12.55c0-.65.37-1.02,1.02-1.02h2.29c.65,0,1.02.37,1.02,1.02v.95c1.3-1.46,3.18-2.35,5.49-2.35,4.6,0,7.95,3.8,7.95,8.62s-3.36,8.62-7.95,8.62ZM68.3,15.02c-2.54,0-4.55,2.08-4.55,4.75s2,4.75,4.55,4.75,4.5-2.07,4.5-4.75-1.97-4.75-4.5-4.75Z"/>
    <path class="logo-path" d="M95.93,17.81v9.17c0,.65-.37,1.02-1.02,1.02h-2.34c-.65,0-1.02-.37-1.02-1.02v-8.71c0-1.83-1.43-3.26-3.12-3.26-2.02,0-3.74,1.54-3.74,4.02v7.95c0,.65-.37,1.02-1.02,1.02h-2.34c-.65,0-1.02-.37-1.02-1.02V5.81c0-.65.37-1.02,1.02-1.02h2.34c.65,0,1.02.37,1.02,1.02v7.57c1.16-1.4,2.8-2.23,4.69-2.23,3.86,0,6.53,2.67,6.53,6.66Z"/>
    <path class="logo-path" d="M102.1,4.62c1.46,0,2.59,1.1,2.59,2.53s-1.13,2.53-2.59,2.53-2.59-1.1-2.59-2.53,1.13-2.53,2.59-2.53ZM100.92,11.53h2.34c.65,0,1.02.37,1.02,1.02v14.44c0,.65-.37,1.02-1.02,1.02h-2.34c-.65,0-1.02-.37-1.02-1.02v-14.44c0-.65.37-1.02,1.02-1.02Z"/>
    <path class="logo-path" d="M124.2,17.81v9.17c0,.65-.37,1.02-1.02,1.02h-2.34c-.65,0-1.02-.37-1.02-1.02v-8.71c0-1.83-1.43-3.26-3.12-3.26-2.02,0-3.74,1.54-3.74,4.02v7.95c0,.65-.37,1.02-1.02,1.02h-2.34c-.65,0-1.02-.37-1.02-1.02v-14.44c0-.65.37-1.02,1.02-1.02h2.34c.65,0,1.02.37,1.02,1.02v.83c1.16-1.4,2.8-2.23,4.69-2.23,3.86,0,6.53,2.67,6.53,6.66Z"/>
    <path class="logo-path" d="M136.35,24.91c1.89,0,3.36-.54,4.68-1.57.51-.4,1-.38,1.45.06l.78.78c.46.46.49.99.03,1.45-1.72,1.64-3.91,2.77-6.92,2.77-5.63,0-9.37-3.8-9.37-8.62s3.85-8.62,8.95-8.62,8.63,3.74,8.63,8.33c0,.21-.02.45-.03.67-.06.62-.48.92-1.1.92h-12.04c.38,2.29,2.29,3.83,4.93,3.83ZM131.54,17.96h8.55c-.48-1.96-2.04-3.32-4.17-3.32s-3.8,1.32-4.39,3.32Z"/>
  </g>
  <g>
    <path class="logo-path" d="M155.33,9.88c-.65,0-1.02-.37-1.02-1.02v-1.86c0-.65.37-1.02,1.02-1.02h13.93c.65,0,1.02.37,1.02,1.02v1.86c0,.65-.37,1.02-1.02,1.02h-4.71v17.35c0,.65-.37,1.02-1.02,1.02h-2.48c-.65,0-1.02-.37-1.02-1.02V9.88h-4.71Z"/>
    <path class="logo-path" d="M177.97,11.39c2.31,0,4.17.89,5.49,2.35v-.95c0-.65.37-1.02,1.02-1.02h2.29c.65,0,1.02.37,1.02,1.02v14.44c0,.65-.37,1.02-1.02,1.02h-2.29c-.65,0-1.02-.37-1.02-1.02v-.95c-1.32,1.46-3.18,2.35-5.49,2.35-4.6,0-7.95-3.8-7.95-8.62s3.36-8.62,7.95-8.62ZM178.91,24.77c2.54,0,4.55-2.07,4.55-4.75s-2-4.75-4.55-4.75-4.5,2.08-4.5,4.75,1.97,4.75,4.5,4.75Z"/>
    <path class="logo-path" d="M206.25,12.94l-5.18,14.5c-.19.56-.57.81-1.16.81h-2.96c-.59,0-.97-.25-1.16-.81l-5.18-14.5c-.25-.7.08-1.16.83-1.16h2.43c.59,0,.95.27,1.14.83l3.42,10.38,3.42-10.38c.19-.56.56-.83,1.14-.83h2.43c.75,0,1.08.46.83,1.16Z"/>
    <path class="logo-path" d="M217.06,25.15c1.89,0,3.36-.54,4.68-1.57.51-.4,1-.38,1.45.06l.78.78c.46.46.49.99.03,1.45-1.72,1.64-3.91,2.77-6.92,2.77-5.63,0-9.37-3.8-9.37-8.62s3.85-8.62,8.95-8.62,8.63,3.74,8.63,8.33c0,.21-.02.45-.03.67-.06.62-.48.92-1.1.92h-12.04c.38,2.29,2.29,3.83,4.93,3.83ZM212.24,18.2h8.55c-.48-1.96-2.04-3.32-4.17-3.32s-3.8,1.32-4.39,3.32Z"/>
    <path class="logo-path" d="M232.81,19.52v7.71c0,.65-.37,1.02-1.02,1.02h-2.34c-.65,0-1.02-.37-1.02-1.02v-14.44c0-.65.37-1.02,1.02-1.02h2.34c.65,0,1.02.37,1.02,1.02v1c1.05-1.4,2.51-2.4,4.4-2.4.22,0,.45.02.65.06.59.11.83.59.78,1.18l-.14,1.84c-.06.68-.48.94-1.18.83-.24-.03-.46-.05-.67-.05-2.1,0-3.85,1.7-3.85,4.26Z"/>
    <path class="logo-path" d="M257.15,18.06v9.17c0,.65-.37,1.02-1.02,1.02h-2.34c-.65,0-1.02-.37-1.02-1.02v-8.71c0-1.83-1.43-3.26-3.12-3.26-2.02,0-3.74,1.54-3.74,4.02v7.95c0,.65-.37,1.02-1.02,1.02h-2.34c-.65,0-1.02-.37-1.02-1.02v-14.44c0-.65.37-1.02,1.02-1.02h2.34c.65,0,1.02.37,1.02,1.02v.83c1.16-1.4,2.8-2.23,4.69-2.23,3.86,0,6.53,2.67,6.53,6.66Z"/>
    <path class="logo-path" d="M269.31,25.15c1.89,0,3.36-.54,4.68-1.57.51-.4,1-.38,1.45.06l.78.78c.46.46.49.99.03,1.45-1.72,1.64-3.91,2.77-6.92,2.77-5.63,0-9.37-3.8-9.37-8.62s3.85-8.62,8.95-8.62,8.63,3.74,8.63,8.33c0,.21-.02.45-.03.67-.06.62-.48.92-1.1.92h-12.04c.38,2.29,2.29,3.83,4.93,3.83ZM264.5,18.2h8.55c-.48-1.96-2.04-3.32-4.17-3.32s-3.8,1.32-4.39,3.32Z"/>
  </g>
</svg>
