<svg viewBox="0 0 310 70" xmlns="http://www.w3.org/2000/svg" aria-label="Delphine Taverne" role="img">>
  <g>
    <g>
      <path class="uuid-c639a5d3-2a12-4a07-b2a4-5528ba33f0b3" d="M26.97,17.14c0,6.81-4.39,11.13-11.16,11.13h-7.04c-.65,0-1.02-.37-1.02-1.02V7.03c0-.65.37-1.02,1.02-1.02h7.04c6.77,0,11.16,4.33,11.16,11.13ZM12.27,24.33h3.39c3.99,0,6.76-2.32,6.76-7.19s-2.77-7.19-6.76-7.19h-3.39v14.37Z"/>
      <path class="uuid-c639a5d3-2a12-4a07-b2a4-5528ba33f0b3" d="M38.58,25.17c1.89,0,3.36-.54,4.68-1.57.51-.4,1-.38,1.45.06l.78.78c.46.46.49.99.03,1.45-1.72,1.64-3.91,2.77-6.92,2.77-5.63,0-9.37-3.8-9.37-8.62s3.85-8.62,8.95-8.62,8.63,3.74,8.63,8.33c0,.21-.02.45-.03.67-.06.62-.48.92-1.1.92h-12.04c.38,2.29,2.29,3.83,4.93,3.83ZM33.76,18.22h8.55c-.48-1.96-2.04-3.32-4.17-3.32s-3.8,1.32-4.39,3.32Z"/>
      <path class="uuid-c639a5d3-2a12-4a07-b2a4-5528ba33f0b3" d="M51.05,5.06h2.34c.65,0,1.02.37,1.02,1.02v21.18c0,.65-.37,1.02-1.02,1.02h-2.34c-.65,0-1.02-.37-1.02-1.02V6.07c0-.65.37-1.02,1.02-1.02Z"/>
      <path class="uuid-c639a5d3-2a12-4a07-b2a4-5528ba33f0b3" d="M68.54,28.65c-2.31,0-4.18-.89-5.49-2.35v8.33c0,.65-.37,1.02-1.02,1.02h-2.29c-.65,0-1.02-.37-1.02-1.02V12.81c0-.65.37-1.02,1.02-1.02h2.29c.65,0,1.02.37,1.02,1.02v.95c1.3-1.46,3.18-2.35,5.49-2.35,4.6,0,7.95,3.8,7.95,8.62s-3.36,8.62-7.95,8.62ZM67.6,15.28c-2.54,0-4.55,2.08-4.55,4.75s2,4.75,4.55,4.75,4.5-2.07,4.5-4.75-1.97-4.75-4.5-4.75Z"/>
      <path class="uuid-c639a5d3-2a12-4a07-b2a4-5528ba33f0b3" d="M95.23,18.08v9.17c0,.65-.37,1.02-1.02,1.02h-2.34c-.65,0-1.02-.37-1.02-1.02v-8.71c0-1.83-1.43-3.26-3.12-3.26-2.02,0-3.74,1.54-3.74,4.02v7.95c0,.65-.37,1.02-1.02,1.02h-2.34c-.65,0-1.02-.37-1.02-1.02V6.07c0-.65.37-1.02,1.02-1.02h2.34c.65,0,1.02.37,1.02,1.02v7.57c1.16-1.4,2.8-2.23,4.69-2.23,3.86,0,6.53,2.67,6.53,6.66Z"/>
      <path class="uuid-c639a5d3-2a12-4a07-b2a4-5528ba33f0b3" d="M101.4,4.88c1.46,0,2.59,1.1,2.59,2.53s-1.13,2.53-2.59,2.53-2.59-1.1-2.59-2.53,1.13-2.53,2.59-2.53ZM100.22,11.8h2.34c.65,0,1.02.37,1.02,1.02v14.44c0,.65-.37,1.02-1.02,1.02h-2.34c-.65,0-1.02-.37-1.02-1.02v-14.44c0-.65.37-1.02,1.02-1.02Z"/>
      <path class="uuid-c639a5d3-2a12-4a07-b2a4-5528ba33f0b3" d="M123.5,18.08v9.17c0,.65-.37,1.02-1.02,1.02h-2.34c-.65,0-1.02-.37-1.02-1.02v-8.71c0-1.83-1.43-3.26-3.12-3.26-2.02,0-3.74,1.54-3.74,4.02v7.95c0,.65-.37,1.02-1.02,1.02h-2.34c-.65,0-1.02-.37-1.02-1.02v-14.44c0-.65.37-1.02,1.02-1.02h2.34c.65,0,1.02.37,1.02,1.02v.83c1.16-1.4,2.8-2.23,4.69-2.23,3.86,0,6.53,2.67,6.53,6.66Z"/>
      <path class="uuid-c639a5d3-2a12-4a07-b2a4-5528ba33f0b3" d="M135.66,25.17c1.89,0,3.36-.54,4.68-1.57.51-.4,1-.38,1.45.06l.78.78c.46.46.49.99.03,1.45-1.72,1.64-3.91,2.77-6.92,2.77-5.63,0-9.37-3.8-9.37-8.62s3.85-8.62,8.95-8.62,8.63,3.74,8.63,8.33c0,.21-.02.45-.03.67-.06.62-.48.92-1.1.92h-12.04c.38,2.29,2.29,3.83,4.93,3.83ZM130.84,18.22h8.55c-.48-1.96-2.04-3.32-4.17-3.32s-3.8,1.32-4.39,3.32Z"/>
    </g>
    <g>
      <path class="uuid-c639a5d3-2a12-4a07-b2a4-5528ba33f0b3" d="M154.63,10.15c-.65,0-1.02-.37-1.02-1.02v-1.86c0-.65.37-1.02,1.02-1.02h13.93c.65,0,1.02.37,1.02,1.02v1.86c0,.65-.37,1.02-1.02,1.02h-4.71v17.35c0,.65-.37,1.02-1.02,1.02h-2.48c-.65,0-1.02-.37-1.02-1.02V10.15h-4.71Z"/>
      <path class="uuid-c639a5d3-2a12-4a07-b2a4-5528ba33f0b3" d="M177.27,11.66c2.31,0,4.17.89,5.49,2.35v-.95c0-.65.37-1.02,1.02-1.02h2.29c.65,0,1.02.37,1.02,1.02v14.44c0,.65-.37,1.02-1.02,1.02h-2.29c-.65,0-1.02-.37-1.02-1.02v-.95c-1.32,1.46-3.18,2.35-5.49,2.35-4.6,0-7.95-3.8-7.95-8.62s3.36-8.62,7.95-8.62ZM178.21,25.03c2.54,0,4.55-2.07,4.55-4.75s-2-4.75-4.55-4.75-4.5,2.08-4.5,4.75,1.97,4.75,4.5,4.75Z"/>
      <path class="uuid-c639a5d3-2a12-4a07-b2a4-5528ba33f0b3" d="M205.55,13.2l-5.18,14.5c-.19.56-.57.81-1.16.81h-2.96c-.59,0-.97-.25-1.16-.81l-5.18-14.5c-.25-.7.08-1.16.83-1.16h2.43c.59,0,.95.27,1.14.83l3.42,10.38,3.42-10.38c.19-.56.56-.83,1.14-.83h2.43c.75,0,1.08.46.83,1.16Z"/>
      <path class="uuid-c639a5d3-2a12-4a07-b2a4-5528ba33f0b3" d="M216.36,25.41c1.89,0,3.36-.54,4.68-1.57.51-.4,1-.38,1.45.06l.78.78c.46.46.49.99.03,1.45-1.72,1.64-3.91,2.77-6.92,2.77-5.63,0-9.37-3.8-9.37-8.62s3.85-8.62,8.95-8.62,8.63,3.74,8.63,8.33c0,.21-.02.45-.03.67-.06.62-.48.92-1.1.92h-12.04c.38,2.29,2.29,3.83,4.93,3.83ZM211.54,18.46h8.55c-.48-1.96-2.04-3.32-4.17-3.32s-3.8,1.32-4.39,3.32Z"/>
      <path class="uuid-c639a5d3-2a12-4a07-b2a4-5528ba33f0b3" d="M232.12,19.78v7.71c0,.65-.37,1.02-1.02,1.02h-2.34c-.65,0-1.02-.37-1.02-1.02v-14.44c0-.65.37-1.02,1.02-1.02h2.34c.65,0,1.02.37,1.02,1.02v1c1.05-1.4,2.51-2.4,4.4-2.4.22,0,.45.02.65.06.59.11.83.59.78,1.18l-.14,1.84c-.06.68-.48.94-1.18.83-.24-.03-.46-.05-.67-.05-2.1,0-3.85,1.7-3.85,4.26Z"/>
      <path class="uuid-c639a5d3-2a12-4a07-b2a4-5528ba33f0b3" d="M256.46,18.32v9.17c0,.65-.37,1.02-1.02,1.02h-2.34c-.65,0-1.02-.37-1.02-1.02v-8.71c0-1.83-1.43-3.26-3.12-3.26-2.02,0-3.74,1.54-3.74,4.02v7.95c0,.65-.37,1.02-1.02,1.02h-2.34c-.65,0-1.02-.37-1.02-1.02v-14.44c0-.65.37-1.02,1.02-1.02h2.34c.65,0,1.02.37,1.02,1.02v.83c1.16-1.4,2.8-2.23,4.69-2.23,3.86,0,6.53,2.67,6.53,6.66Z"/>
      <path class="uuid-c639a5d3-2a12-4a07-b2a4-5528ba33f0b3" d="M268.61,25.41c1.89,0,3.36-.54,4.68-1.57.51-.4,1-.38,1.45.06l.78.78c.46.46.49.99.03,1.45-1.72,1.64-3.91,2.77-6.92,2.77-5.63,0-9.37-3.8-9.37-8.62s3.85-8.62,8.95-8.62,8.63,3.74,8.63,8.33c0,.21-.02.45-.03.67-.06.62-.48.92-1.1.92h-12.04c.38,2.29,2.29,3.83,4.93,3.83ZM263.8,18.46h8.55c-.48-1.96-2.04-3.32-4.17-3.32s-3.8,1.32-4.39,3.32Z"/>
    </g>
  </g>
  <g>
    <path class="uuid-c639a5d3-2a12-4a07-b2a4-5528ba33f0b3" d="M24.5,44.43v16.1h-1.87v-11.35l-5.06,6.86h-.67l-5.09-6.91v11.4h-1.87v-16.1h.67l6.6,9.14,6.65-9.14h.65Z"/>
    <path class="uuid-c639a5d3-2a12-4a07-b2a4-5528ba33f0b3" d="M38.73,55.88c0,.98-.21,1.84-.64,2.58-.42.74-1,1.32-1.74,1.73-.74.41-1.55.61-2.45.61s-1.74-.2-2.47-.61c-.74-.41-1.32-.98-1.74-1.73-.42-.74-.64-1.6-.64-2.58v-7.03h1.82v7.15c0,.94.29,1.7.86,2.26.58.56,1.3.84,2.16.84s1.56-.28,2.12-.85c.57-.57.85-1.32.85-2.24v-7.15h1.85v7.03Z"/>
    <path class="uuid-c639a5d3-2a12-4a07-b2a4-5528ba33f0b3" d="M44.97,60.54h-1.85v-18h1.85v18Z"/>
    <path class="uuid-c639a5d3-2a12-4a07-b2a4-5528ba33f0b3" d="M55.89,58.98v1.56c-.74.18-1.38.26-1.94.26-1.22,0-2.18-.31-2.88-.94-.7-.62-1.06-1.58-1.06-2.86v-6.5h-1.97v-1.66h1.97v-3.19h1.85v3.19h3.65v1.66h-3.65v6.38c0,.83.21,1.41.64,1.74s1.04.49,1.84.49c.45,0,.97-.05,1.56-.14Z"/>
    <path class="uuid-c639a5d3-2a12-4a07-b2a4-5528ba33f0b3" d="M61.03,43.43c.27.26.41.58.41.95s-.13.7-.4.96c-.26.26-.59.38-.97.38s-.71-.13-.98-.38c-.27-.26-.41-.58-.41-.96s.14-.68.41-.95c.27-.26.6-.4.98-.4s.69.13.96.4ZM60.98,60.54h-1.85v-11.69h1.85v11.69Z"/>
    <path class="uuid-c639a5d3-2a12-4a07-b2a4-5528ba33f0b3" d="M76.63,42.54v18h-1.75v-1.85c-.45.66-1.07,1.17-1.86,1.55-.79.38-1.64.56-2.56.56-1.09,0-2.07-.27-2.95-.8-.88-.54-1.57-1.27-2.08-2.2s-.76-1.96-.76-3.1.25-2.17.76-3.11c.5-.94,1.2-1.67,2.08-2.21.88-.54,1.86-.8,2.95-.8.88,0,1.7.18,2.47.53.77.35,1.38.84,1.85,1.46v-8.04h1.85ZM72.72,58.62c.62-.32,1.13-.81,1.51-1.46.38-.66.58-1.47.58-2.45s-.19-1.8-.58-2.46c-.38-.66-.89-1.16-1.51-1.48-.62-.32-1.29-.48-1.99-.48-.78,0-1.49.19-2.12.56-.63.38-1.13.9-1.49,1.57-.36.67-.54,1.42-.54,2.26s.18,1.58.54,2.26c.36.67.86,1.2,1.49,1.58.63.38,1.34.58,2.12.58.7,0,1.37-.16,1.99-.48Z"/>
    <path class="uuid-c639a5d3-2a12-4a07-b2a4-5528ba33f0b3" d="M83.06,43.43c.27.26.41.58.41.95s-.13.7-.4.96c-.26.26-.59.38-.97.38s-.71-.13-.98-.38c-.27-.26-.41-.58-.41-.96s.14-.68.41-.95c.27-.26.6-.4.98-.4s.69.13.96.4ZM83.01,60.54h-1.85v-11.69h1.85v11.69Z"/>
    <path class="uuid-c639a5d3-2a12-4a07-b2a4-5528ba33f0b3" d="M93.28,49.08c.66.33,1.22.78,1.7,1.36l-1.13,1.15c-.4-.4-.84-.72-1.33-.95-.49-.23-1-.35-1.55-.35-.58,0-1.04.13-1.4.38-.36.26-.54.62-.54,1.08,0,.38.14.69.43.92.29.23.78.49,1.46.78l1.08.46c1.09.46,1.88.96,2.36,1.48.49.52.73,1.18.73,1.98,0,1.09-.4,1.93-1.19,2.53-.79.6-1.76.9-2.92.9-.98,0-1.85-.21-2.63-.64-.78-.42-1.42-.97-1.93-1.64l1.18-1.22c.56.58,1.1,1.02,1.61,1.33.51.31,1.1.47,1.75.47s1.17-.15,1.6-.44.64-.7.64-1.21c0-.46-.16-.82-.48-1.07-.32-.25-.84-.52-1.56-.8l-1.13-.48c-.98-.42-1.7-.86-2.18-1.34-.48-.48-.72-1.11-.72-1.9,0-1.02.38-1.82,1.13-2.4.75-.58,1.69-.86,2.81-.86.82,0,1.55.16,2.21.49Z"/>
    <path class="uuid-c639a5d3-2a12-4a07-b2a4-5528ba33f0b3" d="M106.99,49.27c.83.46,1.51,1.08,2.04,1.86l-1.32,1.06c-.94-1.26-2.1-1.9-3.48-1.9-.8,0-1.52.2-2.17.59-.65.39-1.16.92-1.52,1.6s-.55,1.41-.55,2.21.18,1.56.55,2.23.88,1.2,1.52,1.6c.65.39,1.37.59,2.17.59,1.38,0,2.53-.62,3.46-1.87l1.32,1.03c-.53.78-1.2,1.4-2.03,1.86s-1.75.68-2.77.68c-1.12,0-2.15-.27-3.08-.82s-1.68-1.28-2.22-2.22c-.54-.94-.82-1.96-.82-3.08s.27-2.14.82-3.07c.54-.93,1.28-1.66,2.22-2.21.94-.54,1.96-.82,3.08-.82,1.02,0,1.95.23,2.78.68Z"/>
    <path class="uuid-c639a5d3-2a12-4a07-b2a4-5528ba33f0b3" d="M114.52,43.43c.27.26.41.58.41.95s-.13.7-.4.96c-.26.26-.59.38-.97.38s-.71-.13-.98-.38c-.27-.26-.41-.58-.41-.96s.14-.68.41-.95c.27-.26.6-.4.98-.4s.69.13.96.4ZM114.48,60.54h-1.85v-11.69h1.85v11.69Z"/>
    <path class="uuid-c639a5d3-2a12-4a07-b2a4-5528ba33f0b3" d="M128.13,49.39c.88.54,1.57,1.27,2.06,2.2.5.93.74,1.96.74,3.1s-.25,2.17-.76,3.11c-.5.94-1.2,1.67-2.08,2.21-.88.54-1.86.8-2.95.8-.86,0-1.68-.17-2.44-.52-.76-.34-1.38-.82-1.86-1.43v6h-1.85v-16.01h1.73v1.87c.45-.67,1.07-1.2,1.86-1.57.79-.38,1.64-.56,2.56-.56,1.1,0,2.1.27,2.98.8ZM127.02,58.53c.63-.38,1.13-.9,1.49-1.57.36-.67.54-1.42.54-2.26s-.18-1.58-.54-2.26c-.36-.67-.86-1.2-1.49-1.58-.63-.38-1.34-.58-2.12-.58-.7,0-1.36.16-1.98.48-.62.32-1.12.81-1.5,1.46-.38.66-.58,1.47-.58,2.45s.19,1.8.56,2.46c.38.66.87,1.16,1.49,1.48.62.32,1.28.48,2,.48.78,0,1.49-.19,2.12-.56Z"/>
    <path class="uuid-c639a5d3-2a12-4a07-b2a4-5528ba33f0b3" d="M136.51,60.54h-1.85v-18h1.85v18Z"/>
    <path class="uuid-c639a5d3-2a12-4a07-b2a4-5528ba33f0b3" d="M142.94,43.43c.27.26.41.58.41.95s-.13.7-.4.96c-.26.26-.59.38-.97.38s-.71-.13-.98-.38c-.27-.26-.41-.58-.41-.96s.14-.68.41-.95c.27-.26.6-.4.98-.4s.69.13.96.4ZM142.89,60.54h-1.85v-11.69h1.85v11.69Z"/>
    <path class="uuid-c639a5d3-2a12-4a07-b2a4-5528ba33f0b3" d="M155.95,49.85c.77.85,1.15,1.96,1.15,3.34v7.34h-1.85v-7.13c0-.93-.26-1.68-.78-2.26-.52-.58-1.23-.86-2.12-.86s-1.63.29-2.21.88-.86,1.33-.86,2.24v7.13h-1.85v-11.69h1.73v1.25c.43-.48.96-.85,1.57-1.12.62-.26,1.29-.4,2.03-.4,1.36,0,2.42.42,3.19,1.27Z"/>
    <path class="uuid-c639a5d3-2a12-4a07-b2a4-5528ba33f0b3" d="M169,49.81c.83.82,1.25,1.99,1.25,3.53v7.2h-1.73v-1.51c-.43.58-.98,1.02-1.66,1.32s-1.43.46-2.28.46c-1.2,0-2.18-.3-2.94-.89s-1.14-1.39-1.14-2.4.38-1.78,1.15-2.38,1.78-.89,3.05-.89h3.7v-1.01c0-.96-.25-1.69-.76-2.2-.5-.5-1.2-.76-2.08-.76-.7,0-1.33.16-1.87.47-.54.31-1.06.78-1.54,1.4l-1.22-1.01c.53-.86,1.21-1.51,2.04-1.93s1.74-.64,2.71-.64c1.38,0,2.48.41,3.31,1.22ZM166.6,58.84c.54-.28.98-.67,1.31-1.16.33-.5.49-1.04.49-1.63v-.29h-3.48c-.82,0-1.44.14-1.87.42-.43.28-.65.69-.65,1.24,0,.59.23,1.05.7,1.37.46.32,1.04.48,1.73.48.64,0,1.23-.14,1.78-.42Z"/>
    <path class="uuid-c639a5d3-2a12-4a07-b2a4-5528ba33f0b3" d="M180.86,48.85v1.63h-.7c-.66,0-1.26.14-1.82.41-.56.27-1.01.66-1.34,1.18-.34.51-.5,1.13-.5,1.85v6.62h-1.85v-11.69h1.73v1.66c.42-.56.95-.99,1.6-1.3.65-.3,1.32-.46,2.03-.46.26,0,.54.03.86.1Z"/>
    <path class="uuid-c639a5d3-2a12-4a07-b2a4-5528ba33f0b3" d="M194.08,48.85l-5.76,13.32c-.45,1.02-1,1.77-1.64,2.24-.65.47-1.42.71-2.32.71-.59,0-1.19-.08-1.8-.24v-1.56c.61.08,1.08.12,1.42.12.61,0,1.12-.14,1.55-.41.42-.27.79-.76,1.09-1.46l.62-1.39-4.85-11.33h1.99l3.86,9.31,3.86-9.31h1.97Z"/>
    <path class="uuid-c639a5d3-2a12-4a07-b2a4-5528ba33f0b3" d="M215.54,42.54v18h-1.75v-1.85c-.45.66-1.07,1.17-1.86,1.55-.79.38-1.64.56-2.56.56-1.09,0-2.07-.27-2.95-.8-.88-.54-1.57-1.27-2.08-2.2s-.76-1.96-.76-3.1.25-2.17.76-3.11c.5-.94,1.2-1.67,2.08-2.21.88-.54,1.86-.8,2.95-.8.88,0,1.7.18,2.47.53.77.35,1.38.84,1.85,1.46v-8.04h1.85ZM211.63,58.62c.62-.32,1.13-.81,1.51-1.46.38-.66.58-1.47.58-2.45s-.19-1.8-.58-2.46c-.38-.66-.89-1.16-1.51-1.48-.62-.32-1.29-.48-1.99-.48-.78,0-1.49.19-2.12.56-.63.38-1.13.9-1.49,1.57-.36.67-.54,1.42-.54,2.26s.18,1.58.54,2.26c.36.67.86,1.2,1.49,1.58.63.38,1.34.58,2.12.58.7,0,1.37-.16,1.99-.48Z"/>
    <path class="uuid-c639a5d3-2a12-4a07-b2a4-5528ba33f0b3" d="M230.39,55.26h-9.24c.11,1.15.57,2.08,1.37,2.78.8.7,1.78,1.06,2.93,1.06,1.33,0,2.52-.53,3.58-1.58l1.08,1.25c-.61.64-1.31,1.14-2.1,1.5s-1.65.54-2.58.54c-1.15,0-2.2-.27-3.14-.8-.94-.54-1.69-1.27-2.23-2.2-.54-.93-.82-1.96-.82-3.1s.26-2.15.79-3.08c.53-.94,1.25-1.68,2.16-2.22.91-.54,1.92-.82,3.02-.82.99,0,1.9.22,2.71.67.82.45,1.46,1.07,1.92,1.87.46.8.7,1.71.7,2.74,0,.5-.05.96-.14,1.39ZM222.62,51.19c-.72.62-1.18,1.43-1.39,2.44h7.42c-.02-1.04-.36-1.86-1.02-2.46-.66-.6-1.48-.9-2.46-.9s-1.82.31-2.54.92Z"/>
    <path class="uuid-c639a5d3-2a12-4a07-b2a4-5528ba33f0b3" d="M239.99,49.08c.66.33,1.22.78,1.7,1.36l-1.13,1.15c-.4-.4-.84-.72-1.33-.95-.49-.23-1-.35-1.55-.35-.58,0-1.04.13-1.4.38-.36.26-.54.62-.54,1.08,0,.38.14.69.43.92.29.23.78.49,1.46.78l1.08.46c1.09.46,1.88.96,2.36,1.48.49.52.73,1.18.73,1.98,0,1.09-.4,1.93-1.19,2.53-.79.6-1.76.9-2.92.9-.98,0-1.85-.21-2.63-.64-.78-.42-1.42-.97-1.93-1.64l1.18-1.22c.56.58,1.1,1.02,1.61,1.33.51.31,1.1.47,1.75.47s1.17-.15,1.6-.44.64-.7.64-1.21c0-.46-.16-.82-.48-1.07-.32-.25-.84-.52-1.56-.8l-1.13-.48c-.98-.42-1.7-.86-2.18-1.34-.48-.48-.72-1.11-.72-1.9,0-1.02.38-1.82,1.13-2.4.75-.58,1.69-.86,2.81-.86.82,0,1.55.16,2.21.49Z"/>
    <path class="uuid-c639a5d3-2a12-4a07-b2a4-5528ba33f0b3" d="M247.53,43.43c.27.26.41.58.41.95s-.13.7-.4.96c-.26.26-.59.38-.97.38s-.71-.13-.98-.38c-.27-.26-.41-.58-.41-.96s.14-.68.41-.95c.27-.26.6-.4.98-.4s.69.13.96.4ZM247.48,60.54h-1.85v-11.69h1.85v11.69Z"/>
    <path class="uuid-c639a5d3-2a12-4a07-b2a4-5528ba33f0b3" d="M263.25,48.85v10.56c0,1.78-.52,3.17-1.55,4.19-1.03,1.02-2.41,1.52-4.14,1.52-1.14,0-2.17-.21-3.11-.64-.94-.42-1.73-.96-2.39-1.62l1.08-1.3c.66.58,1.33,1.03,2.02,1.36.69.33,1.47.49,2.35.49,1.22,0,2.17-.34,2.86-1.01.69-.67,1.03-1.64,1.03-2.9v-1.03c-.46.61-1.08,1.08-1.86,1.43-.78.34-1.6.52-2.48.52-1.09,0-2.07-.26-2.94-.77-.87-.51-1.56-1.21-2.05-2.11s-.74-1.9-.74-3.02.25-2.13.74-3.02c.5-.9,1.18-1.6,2.05-2.12.87-.52,1.85-.78,2.94-.78.93,0,1.79.19,2.58.56.79.38,1.41.9,1.86,1.57v-1.87h1.75ZM259.35,58.26c.62-.3,1.12-.77,1.5-1.4.38-.63.58-1.41.58-2.34s-.19-1.7-.58-2.33c-.38-.62-.89-1.09-1.51-1.39s-1.29-.46-1.99-.46c-.78,0-1.49.18-2.12.54-.63.36-1.13.86-1.49,1.49-.36.63-.54,1.36-.54,2.17s.18,1.54.54,2.17c.36.63.86,1.12,1.49,1.48.63.35,1.34.53,2.12.53.72,0,1.39-.15,2-.46Z"/>
    <path class="uuid-c639a5d3-2a12-4a07-b2a4-5528ba33f0b3" d="M276.31,49.85c.77.85,1.15,1.96,1.15,3.34v7.34h-1.85v-7.13c0-.93-.26-1.68-.78-2.26-.52-.58-1.23-.86-2.12-.86s-1.63.29-2.21.88-.86,1.33-.86,2.24v7.13h-1.85v-11.69h1.73v1.25c.43-.48.96-.85,1.57-1.12.62-.26,1.29-.4,2.03-.4,1.36,0,2.42.42,3.19,1.27Z"/>
    <path class="uuid-c639a5d3-2a12-4a07-b2a4-5528ba33f0b3" d="M292.17,55.26h-9.24c.11,1.15.57,2.08,1.37,2.78.8.7,1.78,1.06,2.93,1.06,1.33,0,2.52-.53,3.58-1.58l1.08,1.25c-.61.64-1.31,1.14-2.1,1.5s-1.65.54-2.58.54c-1.15,0-2.2-.27-3.14-.8-.94-.54-1.69-1.27-2.23-2.2-.54-.93-.82-1.96-.82-3.1s.26-2.15.79-3.08c.53-.94,1.25-1.68,2.16-2.22.91-.54,1.92-.82,3.02-.82.99,0,1.9.22,2.71.67.82.45,1.46,1.07,1.92,1.87.46.8.7,1.71.7,2.74,0,.5-.05.96-.14,1.39ZM284.39,51.19c-.72.62-1.18,1.43-1.39,2.44h7.42c-.02-1.04-.36-1.86-1.02-2.46-.66-.6-1.48-.9-2.46-.9s-1.82.31-2.54.92Z"/>
    <path class="uuid-c639a5d3-2a12-4a07-b2a4-5528ba33f0b3" d="M302.25,48.85v1.63h-.7c-.66,0-1.26.14-1.82.41-.56.27-1.01.66-1.34,1.18-.34.51-.5,1.13-.5,1.85v6.62h-1.85v-11.69h1.73v1.66c.42-.56.95-.99,1.6-1.3.65-.3,1.32-.46,2.03-.46.26,0,.54.03.86.1Z"/>
  </g>
</svg>
