<svg viewBox="0 0 50 50" xmlns="http://www.w3.org/2000/svg" aria-label="Mail" role="img">>
  <defs>
    <style>
      .uuid-6f6116f5-4883-4179-8ba2-520d9b964d6c {
        fill: #faebe3;
      }

      .uuid-88c080c1-e521-403c-95ca-ae181e633cb9 {
        fill: #ea5659;
      }
    </style>
  </defs>
  <circle class="uuid-6f6116f5-4883-4179-8ba2-520d9b964d6c" cx="25" cy="25" r="24"/>
  <path class="uuid-88c080c1-e521-403c-95ca-ae181e633cb9" d="M9.15,35.18c-.07-.14-.11-.27-.18-.47,0,0,0,0,0,0l-.06-.36s0,0,0,0c0-6.23,0-12.33,0-18.29,0-.29.02-.52.06-.68.18-.77.66-1.3,1.43-1.6.07-.03.19-.05.36-.08.11-.02.23-.03.36-.03,7.06,0,16.22,0,27.5,0,.33,0,.57.02.73.05.84.17,1.48.81,1.69,1.63.04.17.06.43.06.78,0,5.01,0,11.07,0,18.15,0,.09,0,.16-.01.19-.02.09-.02.19-.04.26-.1.42-.29.76-.58,1.03-.42.4-.93.61-1.54.61-9.96,0-19.22,0-27.8,0-.37,0-.69-.07-.97-.2-.45-.22-.79-.55-1.01-.98M25.04,27.75c.39,0,.69-.15.97-.43.8-.81,1.8-1.77,2.76-2.73,2.07-2.06,4.13-4.11,6.19-6.14.26-.25,1.32-1.32,3.19-3.19,0,0,0-.02,0-.02-2.35,0-6.72,0-13.1,0-6.38,0-10.75,0-13.1,0,0,0-.01,0,0,.02,1.87,1.87,2.94,2.93,3.19,3.19,2.05,2.03,4.12,4.08,6.19,6.14.96.96,1.96,1.91,2.76,2.73.27.27.57.43.97.43M19.26,24.98s0-.02,0-.03l-8.76-8.71s-.03,0-.03.01v17.47s.02.03.04.01l8.76-8.76M39.54,33.65v-17.41s-.01-.01-.02,0c-.1.11-.2.19-.32.31-1.91,1.9-3.42,3.37-5.39,5.35-1.73,1.73-2.71,2.7-2.94,2.92-.05.04-.1.09-.17.14-.01.01-.02.03,0,.04l8.82,8.66s.02,0,.02,0M11.86,34.73h26.32s.02-.02.01-.02l-8.58-8.53s-.07-.02-.09,0c-.33.36-.89.89-1.94,1.92-.49.48-.78.75-.87.81-.34.23-.71.37-1.11.42-.32.04-.65.05-.98.01-.36-.04-.72-.15-1.06-.35-.13-.07-.3-.21-.5-.41-.95-.92-1.79-1.74-2.51-2.47-.02-.02-.04-.02-.06,0l-8.65,8.59s0,.02,0,.02h0Z"/>
</svg>
