<?xml version="1.0" encoding="UTF-8"?>
<svg id="Calque_1" data-name="Calque 1"
     xmlns="http://www.w3.org/2000/svg"
     viewBox="0 0 374.55 239.8"
     fill="currentColor">
  <path d="M28.05,55.94v-28h9.96l4.6,13.64c1.32,3.88,1.8,5.16,2.12,5.96.36-.88.8-2.08,2.12-5.96l4.68-13.64h9.6v28h-6.08v-22.84l-7.8,22.84h-5.4l-7.72-22.8v22.8h-6.08Z"/>
  <path d="M67.65,45.42v-17.48h2.8v17c0,5.56,2.24,8.88,7.28,8.88s7.24-3.36,7.24-8.88v-17h2.8v17.48c0,7.04-3.44,11.04-10.04,11.04s-10.08-3.72-10.08-11.04Z"/>
  <path d="M92.57,49.22l2.76-1.28c1.04,3.44,3.88,5.96,8.08,5.96s6.92-2.08,6.92-5.24c0-2.8-2-4.44-5.52-5.28l-4-1.04c-3.84-.96-6.92-2.96-6.92-7.4s3.88-7.52,9.2-7.52c6.12,0,8.92,3.8,9.72,6.2l-2.64,1.24c-.64-1.76-2.48-4.92-7.28-4.92-3.72,0-6.2,1.92-6.2,4.84,0,2.6,1.68,3.96,5.24,4.92l3.88.96c4.4,1.08,7.48,3.6,7.48,7.8,0,4.72-3.6,8-10,8-5.64,0-9.28-2.92-10.72-7.24Z"/>
  <path d="M119.01,55.94v-28h19.16v2.6h-16.36v9.56h12.28v2.56h-12.28v10.68h16.36v2.6h-19.16ZM127.49,24.86l2.76-5.16h3.96l-4.68,5.16h-2.04Z"/>
  <path d="M143.69,55.94v-28h19.16v2.6h-16.36v9.56h12.28v2.56h-12.28v10.68h16.36v2.6h-19.16Z"/>
  <path d="M29.05,97.94v-28h8.64c8.28,0,13.68,5.4,13.68,13.92s-5.04,14.08-13.76,14.08h-8.56ZM31.85,95.34h5.24c7.56,0,11.32-4.12,11.32-11.48,0-6.92-3.72-11.32-11.16-11.32h-5.4v22.8Z"/>
  <path d="M55.61,78.9l2.6-4.8h-1.92v-4.2h3.6v4.2l-2.52,4.8h-1.76Z"/>
  <path d="M84,97.94l-2.24-6.56h-11.4l-2.28,6.56h-6.52l10.68-28h7.88l10.6,28h-6.72ZM72.13,86.34h7.92l-2.08-6.16-1.84-5.36c-.32,1-.72,2.2-1.84,5.4l-2.16,6.12Z"/>
  <path d="M94.53,97.94v-28h11.08c5.32,0,8.72,3.16,8.72,7.6,0,3.96-2.68,6.56-6.32,7.32,3.52.6,4.8,2.52,5.44,5.64l1.64,7.44h-3.04l-1.44-7.16c-.68-3.44-2.4-4.92-6.4-4.92h-6.88v12.08h-2.8ZM97.33,83.34h7.88c3.56,0,6.16-1.92,6.16-5.44s-2.64-5.36-6.16-5.36h-7.88v10.8Z"/>
  <path d="M118.77,83.58c0-8.2,5.16-14.16,13.28-14.16,7.4,0,11,4.88,11.92,8.12l-2.8,1.04c-.76-2.6-3.28-6.6-9.12-6.6-6.4,0-10.28,4.48-10.28,11.56s3.88,12.36,10.28,12.36c5.68,0,8.12-3.32,9.32-6.96l2.76,1.08c-1.36,4.12-4.96,8.44-12.08,8.44-8.52,0-13.28-6.64-13.28-14.88Z"/>
  <path d="M149.29,97.94v-28h2.8v12.16h16.44v-12.16h2.8v28h-2.8v-13.24h-16.44v13.24h-2.8Z"/>
  <path d="M179.21,97.94v-28h19.16v2.6h-16.36v9.56h12.28v2.56h-12.28v10.68h16.36v2.6h-19.16ZM187.69,66.86l2.76-5.16h3.96l-4.68,5.16h-2.04Z"/>
  <path d="M201.01,83.9c0-8.64,5.96-14.48,13.72-14.48s13.68,5.84,13.68,14.48-5.92,14.56-13.68,14.56-13.72-5.92-13.72-14.56ZM225.44,83.9c0-6.76-4.32-11.92-10.72-11.92s-10.72,5.12-10.72,11.92,4.28,12,10.72,12,10.72-5.24,10.72-12Z"/>
  <path d="M234.25,97.94v-28h2.8v25.36h15.2v2.64h-18Z"/>
  <path d="M252.81,83.9c0-8.64,5.96-14.48,13.72-14.48s13.68,5.84,13.68,14.48-5.92,14.56-13.68,14.56-13.72-5.92-13.72-14.56ZM277.24,83.9c0-6.76-4.32-11.92-10.72-11.92s-10.72,5.12-10.72,11.92,4.28,12,10.72,12,10.72-5.24,10.72-12Z"/>
  <path d="M284.01,83.82c0-8.48,5.92-14.4,13.76-14.4s11.28,4.84,12.4,8.36l-2.8,1.16c-1.12-3.32-3.84-6.92-9.64-6.92s-10.72,4.32-10.72,11.76,4.08,12.12,10.52,12.12c5.84,0,9.4-4.04,9.68-8.8h-10.24v-2.6h13.08v13.44h-2.72v-5.84c-1.08,2.72-3.88,6.36-10.12,6.36-8.16,0-13.2-5.92-13.2-14.64Z"/>
  <path d="M316.49,97.94v-28h2.8v28h-2.8Z"/>
  <path d="M327.17,97.94v-28h19.16v2.6h-16.36v9.56h12.28v2.56h-12.28v10.68h16.36v2.6h-19.16Z"/>
  <path d="M28.05,139.94v-28h8.44l12.56,17.72v-17.72h6.08v28h-5.6l-15.4-21.72v21.72h-6.08Z"/>
  <path d="M80.4,139.94l-3-8.2h-12.68l-3,8.2h-3.08l10.6-28h3.84l10.48,28h-3.16ZM65.65,129.18h10.84l-3.68-10.12c-.8-2.28-1.32-3.68-1.72-4.8-.44,1.12-.96,2.64-1.76,4.8l-3.68,10.12Z"/>
  <path d="M91.57,139.94v-25.4h-10.16v-2.6h23.64v2.6h-10.68v25.4h-2.8Z"/>
  <path d="M109.13,139.94v-28h2.8v28h-2.8Z"/>
  <path d="M117.73,125.9c0-8.64,5.96-14.48,13.72-14.48s13.68,5.84,13.68,14.48-5.92,14.56-13.68,14.56-13.72-5.92-13.72-14.56ZM142.16,125.9c0-6.76-4.32-11.92-10.72-11.92s-10.72,5.12-10.72,11.92,4.28,12,10.72,12,10.72-5.24,10.72-12Z"/>
  <path d="M150.97,139.94v-28h3.72l16.48,23.48v-23.48h2.8v28h-2.96l-17.24-24.56v24.56h-2.8Z"/>
  <path d="M200.2,139.94l-3-8.2h-12.68l-3,8.2h-3.08l10.6-28h3.84l10.48,28h-3.16ZM185.45,129.18h10.84l-3.68-10.12c-.8-2.28-1.32-3.68-1.72-4.8-.44,1.12-.96,2.64-1.76,4.8l-3.68,10.12Z"/>
  <path d="M207.93,139.94v-28h2.8v25.36h15.2v2.64h-18Z"/>
  <path d="M230.01,139.94v-28h19.16v2.6h-16.36v9.56h12.28v2.56h-12.28v10.68h16.36v2.6h-19.16Z"/>
  <path d="M28.15,187.79v-16.75h5.62c4.86,0,8.13,3.28,8.13,8.33s-3.16,8.42-8.23,8.42h-5.53ZM30.3,185.81h3.04c4.24,0,6.29-2.25,6.29-6.44,0-3.83-2.01-6.34-6.15-6.34h-3.18v12.78Z"/>
  <path d="M44.15,181.88c0-3.68,2.44-6.27,5.62-6.27s5.57,2.58,5.57,6.27-2.49,6.24-5.57,6.24-5.62-2.58-5.62-6.24ZM53.24,181.91c0-3.01-1.48-4.52-3.47-4.52s-3.49,1.51-3.49,4.52,1.48,4.45,3.49,4.45,3.47-1.44,3.47-4.45Z"/>
  <path d="M58.36,187.79v-11.84h1.96v1.87c.43-.84,1.48-2.2,3.64-2.2,1.77,0,3.13.98,3.71,2.56.48-1.1,1.58-2.56,4-2.56,2.66,0,4.14,1.56,4.14,4.35v7.82h-2.03v-7.27c0-2.25-1.08-3.11-2.66-3.11-2.97,0-3.06,3.09-3.06,4.69v5.69h-1.99v-7.25c0-2.27-1.08-3.13-2.66-3.13-2.92,0-3.04,3.09-3.04,4.76v5.62h-2.01Z"/>
  <path d="M78.65,181.88c0-3.97,2.15-6.27,4.88-6.27,2.11,0,3.28,1.22,3.85,2.25v-1.91h2.01v11.84h-1.99v-1.91c-.57,1.05-1.79,2.25-3.88,2.25-2.73,0-4.88-2.3-4.88-6.24ZM87.48,181.88c0-3.04-1.44-4.52-3.4-4.52s-3.33,1.24-3.33,4.52,1.46,4.5,3.33,4.5c1.96,0,3.4-1.44,3.4-4.5Z"/>
  <path d="M93.22,173.65v-2.61h2.15v2.61h-2.15ZM93.29,187.79v-11.84h2.03v11.84h-2.03Z"/>
  <path d="M99.24,187.79v-11.84h1.96v2.08c.22-.62,1.39-2.42,3.92-2.42,2.94,0,4.14,1.87,4.14,4.5v7.68h-2.03v-7.2c0-2.25-1.03-3.21-2.68-3.21-3.16,0-3.3,3.45-3.3,5.17v5.24h-2.01Z"/>
  <path d="M112.11,181.86c0-3.85,2.32-6.24,5.31-6.24,3.47,0,5.57,2.9,5.17,6.72h-8.45c.1,3.06,1.75,4.07,3.45,4.07,1.94,0,2.85-1.44,3.21-2.35l1.87.67c-.81,2.13-2.66,3.4-5.14,3.4-3.25,0-5.41-2.2-5.41-6.27ZM120.54,180.71c-.02-2.3-1.46-3.47-3.11-3.47s-3.06,1.34-3.23,3.47h6.34Z"/>
  <path d="M131.83,187.79v-11.84h1.96v2.08c.22-.62,1.39-2.42,3.92-2.42,2.94,0,4.14,1.87,4.14,4.5v7.68h-2.03v-7.2c0-2.25-1.03-3.21-2.68-3.21-3.16,0-3.3,3.45-3.3,5.17v5.24h-2.01Z"/>
  <path d="M144.7,181.88c0-3.97,2.15-6.27,4.88-6.27,2.11,0,3.28,1.22,3.85,2.25v-1.91h2.01v11.84h-1.99v-1.91c-.57,1.05-1.79,2.25-3.88,2.25-2.73,0-4.88-2.3-4.88-6.24ZM153.52,181.88c0-3.04-1.44-4.52-3.4-4.52s-3.33,1.24-3.33,4.52,1.46,4.5,3.33,4.5c1.96,0,3.4-1.44,3.4-4.5Z"/>
  <path d="M163.55,187.79c-2.03,0-3.04-.98-3.04-2.94v-7.2h-2.78v-1.7h2.78v-3.66h2.01v3.66h3.28v1.7h-3.28v7.03c0,.93.43,1.36,1.36,1.36h2.34v1.75h-2.68Z"/>
  <path d="M168.59,173.65v-2.61h2.15v2.61h-2.15ZM168.67,187.79v-11.84h2.03v11.84h-2.03Z"/>
  <path d="M173.66,181.88c0-3.68,2.44-6.27,5.62-6.27s5.57,2.58,5.57,6.27-2.49,6.24-5.57,6.24-5.62-2.58-5.62-6.24ZM182.76,181.91c0-3.01-1.48-4.52-3.47-4.52s-3.49,1.51-3.49,4.52,1.48,4.45,3.49,4.45,3.47-1.44,3.47-4.45Z"/>
  <path d="M187.88,187.79v-11.84h1.96v2.08c.22-.62,1.39-2.42,3.92-2.42,2.94,0,4.14,1.87,4.14,4.5v7.68h-2.03v-7.2c0-2.25-1.03-3.21-2.68-3.21-3.16,0-3.3,3.45-3.3,5.17v5.24h-2.01Z"/>
  <path d="M200.74,181.88c0-3.97,2.15-6.27,4.88-6.27,2.11,0,3.28,1.22,3.85,2.25v-1.91h2.01v11.84h-1.99v-1.91c-.57,1.05-1.79,2.25-3.88,2.25-2.73,0-4.88-2.3-4.88-6.24ZM209.57,181.88c0-3.04-1.44-4.52-3.4-4.52s-3.33,1.24-3.33,4.52,1.46,4.5,3.33,4.5c1.96,0,3.4-1.44,3.4-4.5Z"/>
  <path d="M215.41,187.79v-16.75h2.01v16.75h-2.01Z"/>
  <path d="M226.53,181.88c0-3.97,2.15-6.27,4.88-6.27,2.11,0,3.28,1.22,3.85,2.25v-6.82h2.01v16.75h-1.99v-1.91c-.57,1.05-1.79,2.25-3.88,2.25-2.73,0-4.88-2.3-4.88-6.24ZM235.36,181.88c0-3.04-1.44-4.52-3.4-4.52s-3.33,1.24-3.33,4.52,1.46,4.5,3.33,4.5c1.96,0,3.4-1.44,3.4-4.5Z"/>
  <path d="M241.01,183.65v-7.7h2.03v7.23c0,2.25,1.03,3.16,2.61,3.16,2.87,0,3.23-3.04,3.23-5.1v-5.29h2.03v11.84h-1.99v-2.13c-.36.69-1.46,2.46-3.97,2.46-2.73,0-3.95-1.82-3.95-4.47Z"/>
  <path d="M260,181.86c0-3.66,2.37-6.24,5.65-6.24,2.68,0,4.38,1.6,4.93,3.42l-1.89.65c-.41-1.22-1.34-2.3-3.06-2.3-1.89,0-3.49,1.48-3.49,4.47s1.56,4.5,3.52,4.5,2.87-1.32,3.28-2.66l1.91.67c-.74,2.18-2.51,3.76-5.17,3.76-3.4,0-5.67-2.44-5.67-6.27Z"/>
  <path d="M273.49,187.79v-16.75h2.01v6.99c.22-.62,1.29-2.42,4-2.42s4.02,1.87,4.02,4.5v7.68h-2.03v-7.2c0-2.25-1.03-3.21-2.68-3.21-3.16,0-3.3,3.45-3.3,5.17v5.24h-2.01Z"/>
  <path d="M286.36,181.88c0-3.97,2.15-6.27,4.88-6.27,2.11,0,3.28,1.22,3.85,2.25v-1.91h2.01v11.84h-1.99v-1.91c-.57,1.05-1.79,2.25-3.88,2.25-2.73,0-4.88-2.3-4.88-6.24ZM287.87,174.23l2.56-2.92h2.94l2.54,2.92h-2.01l-2.01-1.82-2.01,1.82h-2.01ZM295.19,181.88c0-3.04-1.44-4.52-3.4-4.52s-3.33,1.24-3.33,4.52,1.46,4.5,3.33,4.5c1.96,0,3.4-1.44,3.4-4.5Z"/>
  <path d="M305.21,187.79c-2.03,0-3.04-.98-3.04-2.94v-7.2h-2.78v-1.7h2.78v-3.66h2.01v3.66h3.28v1.7h-3.28v7.03c0,.93.43,1.36,1.36,1.36h2.35v1.75h-2.68Z"/>
  <path d="M309.33,181.86c0-3.85,2.32-6.24,5.31-6.24,3.47,0,5.57,2.9,5.17,6.72h-8.45c.1,3.06,1.75,4.07,3.45,4.07,1.94,0,2.85-1.44,3.21-2.35l1.87.67c-.81,2.13-2.66,3.4-5.14,3.4-3.25,0-5.41-2.2-5.41-6.27ZM317.75,180.71c-.02-2.3-1.46-3.47-3.11-3.47s-3.06,1.34-3.23,3.47h6.34Z"/>
  <path d="M322.03,181.88c0-3.97,2.15-6.27,4.88-6.27,2.11,0,3.28,1.22,3.85,2.25v-1.91h2.01v11.84h-1.99v-1.91c-.57,1.05-1.79,2.25-3.88,2.25-2.73,0-4.88-2.3-4.88-6.24ZM330.86,181.88c0-3.04-1.44-4.52-3.4-4.52s-3.33,1.24-3.33,4.52,1.46,4.5,3.33,4.5c1.96,0,3.4-1.44,3.4-4.5Z"/>
  <path d="M336.5,183.65v-7.7h2.03v7.23c0,2.25,1.03,3.16,2.61,3.16,2.87,0,3.23-3.04,3.23-5.1v-5.29h2.03v11.84h-1.99v-2.13c-.36.69-1.46,2.46-3.97,2.46-2.73,0-3.95-1.82-3.95-4.47Z"/>
  <path d="M26.81,206.01c0-3.97,2.15-6.27,4.88-6.27,2.11,0,3.28,1.22,3.85,2.25v-6.82h2.01v16.75h-1.99v-1.91c-.57,1.05-1.79,2.25-3.88,2.25-2.73,0-4.88-2.3-4.88-6.24ZM35.64,206.01c0-3.04-1.44-4.52-3.4-4.52s-3.33,1.24-3.33,4.52,1.46,4.5,3.33,4.5c1.96,0,3.4-1.44,3.4-4.5Z"/>
  <path d="M40.56,205.98c0-3.85,2.32-6.24,5.31-6.24,3.47,0,5.57,2.9,5.17,6.72h-8.45c.1,3.06,1.75,4.07,3.45,4.07,1.94,0,2.85-1.44,3.21-2.35l1.87.67c-.81,2.13-2.66,3.4-5.14,3.4-3.25,0-5.41-2.2-5.41-6.27ZM48.98,204.83c-.02-2.3-1.46-3.47-3.11-3.47s-3.06,1.34-3.23,3.47h6.34Z"/>
  <path d="M59.13,207.7l2.11-.96c.6,1.96,2.11,3.54,4.69,3.54,2.39,0,3.73-1.15,3.73-2.82,0-1.48-1.05-2.37-3.11-2.82l-2.3-.55c-2.49-.55-4.28-1.79-4.28-4.57s2.3-4.69,5.72-4.69c3.68,0,5.48,2.27,5.98,3.88l-2.03.93c-.38-1.1-1.41-2.87-4.14-2.87-2.13,0-3.37,1.1-3.37,2.63,0,1.44.88,2.15,2.8,2.61l2.32.53c2.73.62,4.69,2.18,4.69,4.74,0,2.89-2.15,4.98-6.13,4.98-3.61,0-5.86-1.94-6.68-4.55Z"/>
  <path d="M74.12,206.01c0-3.97,2.15-6.27,4.88-6.27,2.11,0,3.28,1.22,3.85,2.25v-1.91h2.01v11.84h-1.99v-1.91c-.57,1.05-1.79,2.25-3.88,2.25-2.73,0-4.88-2.3-4.88-6.24ZM82.95,206.01c0-3.04-1.44-4.52-3.4-4.52s-3.33,1.24-3.33,4.52,1.46,4.5,3.33,4.5c1.96,0,3.4-1.44,3.4-4.5Z"/>
  <path d="M88.69,197.77v-2.61h2.15v2.61h-2.15ZM88.77,211.91v-11.84h2.03v11.84h-2.03Z"/>
  <path d="M94.72,211.91v-11.84h1.96v2.08c.22-.62,1.39-2.42,3.92-2.42,2.94,0,4.14,1.87,4.14,4.5v7.68h-2.03v-7.2c0-2.25-1.03-3.21-2.68-3.21-3.16,0-3.3,3.45-3.3,5.17v5.24h-2.01Z"/>
  <path d="M112.66,211.91c-2.03,0-3.04-.98-3.04-2.94v-7.2h-2.78v-1.7h2.78v-3.66h2.01v3.66h3.28v1.7h-3.28v7.03c0,.93.43,1.36,1.36,1.36h2.34v1.75h-2.68Z"/>
  <path d="M117.45,205.55v-2.11h6.6v2.11h-6.6Z"/>
  <path d="M126.87,203.52c0-5.12,3.73-8.69,8.35-8.69,4.35,0,6.7,2.63,7.49,5.02l-2.18.89c-.77-2.13-2.32-3.9-5.36-3.9s-5.98,2.32-5.98,6.65,2.37,6.8,5.89,6.8c3.33,0,5.22-2.27,5.38-4.57h-5.91v-1.99h8.11v8.18h-2.08v-3.11c-.62,1.34-2.2,3.45-5.79,3.45-4.83,0-7.92-3.42-7.92-8.73Z"/>
  <path d="M145.27,205.98c0-3.85,2.32-6.24,5.31-6.24,3.47,0,5.57,2.9,5.17,6.72h-8.45c.1,3.06,1.75,4.07,3.45,4.07,1.94,0,2.85-1.44,3.21-2.35l1.87.67c-.81,2.13-2.66,3.4-5.14,3.4-3.25,0-5.41-2.2-5.41-6.27ZM153.69,204.83c-.02-2.3-1.46-3.47-3.11-3.47s-3.06,1.34-3.23,3.47h6.34Z"/>
  <path d="M158.88,211.91v-11.84h1.96v2.56c.41-.98,1.6-2.73,3.95-2.73.55,0,.91.05,1.2.14v2.06c-.36-.05-.81-.12-1.34-.12-2.66,0-3.76,1.75-3.76,4.59v5.34h-2.01Z"/>
  <path d="M168.31,211.91v-11.84h1.96v1.87c.43-.84,1.48-2.2,3.64-2.2,1.77,0,3.13.98,3.71,2.56.48-1.1,1.58-2.56,4-2.56,2.66,0,4.14,1.56,4.14,4.35v7.82h-2.03v-7.27c0-2.25-1.08-3.11-2.66-3.11-2.97,0-3.06,3.09-3.06,4.69v5.69h-1.99v-7.25c0-2.27-1.08-3.13-2.66-3.13-2.92,0-3.04,3.09-3.04,4.76v5.62h-2.01Z"/>
  <path d="M188.59,206.01c0-3.97,2.15-6.27,4.88-6.27,2.11,0,3.28,1.22,3.85,2.25v-1.91h2.01v11.84h-1.99v-1.91c-.57,1.05-1.79,2.25-3.88,2.25-2.73,0-4.88-2.3-4.88-6.24ZM197.42,206.01c0-3.04-1.44-4.52-3.4-4.52s-3.33,1.24-3.33,4.52,1.46,4.5,3.33,4.5c1.96,0,3.4-1.44,3.4-4.5Z"/>
  <path d="M203.16,197.77v-2.61h2.15v2.61h-2.15ZM203.23,211.91v-11.84h2.03v11.84h-2.03Z"/>
  <path d="M209.19,211.91v-11.84h1.96v2.08c.22-.62,1.39-2.42,3.92-2.42,2.94,0,4.14,1.87,4.14,4.5v7.68h-2.03v-7.2c0-2.25-1.03-3.21-2.68-3.21-3.16,0-3.3,3.45-3.3,5.17v5.24h-2.01Z"/>
  <path d="M222.61,205.55v-2.11h6.6v2.11h-6.6Z"/>
  <path d="M231.89,205.98c0-3.85,2.32-6.24,5.31-6.24,3.47,0,5.57,2.9,5.17,6.72h-8.45c.1,3.06,1.75,4.07,3.45,4.07,1.94,0,2.85-1.44,3.21-2.35l1.87.67c-.81,2.13-2.66,3.4-5.14,3.4-3.25,0-5.41-2.2-5.41-6.27ZM240.31,204.83c-.02-2.3-1.46-3.47-3.11-3.47s-3.06,1.34-3.23,3.47h6.34Z"/>
  <path d="M245.5,211.91v-11.84h1.96v2.08c.22-.62,1.39-2.42,3.92-2.42,2.94,0,4.14,1.87,4.14,4.5v7.68h-2.03v-7.2c0-2.25-1.03-3.21-2.68-3.21-3.16,0-3.3,3.45-3.3,5.17v5.24h-2.01Z"/>
  <path d="M258.92,205.55v-2.11h6.6v2.11h-6.6Z"/>
  <path d="M269.54,211.91v-16.75h2.15v14.71h9.04v2.03h-11.2Z"/>
  <path d="M281.96,206.01c0-3.97,2.15-6.27,4.88-6.27,2.11,0,3.28,1.22,3.85,2.25v-1.91h2.01v11.84h-1.99v-1.91c-.57,1.05-1.79,2.25-3.88,2.25-2.73,0-4.88-2.3-4.88-6.24ZM290.79,206.01c0-3.04-1.44-4.52-3.4-4.52s-3.33,1.24-3.33,4.52,1.46,4.5,3.33,4.5c1.96,0,3.4-1.44,3.4-4.5Z"/>
  <path d="M303.94,200.07h2.15l-4.74,13.54c-.74,2.2-1.58,2.97-3.68,2.97h-2.3v-1.82h2.25c.88,0,1.41-.21,1.79-1.27l.62-1.79-5.22-11.63h2.25l2.61,6.17c.72,1.68.98,2.27,1.2,2.87.24-.67.41-1.17.91-2.66l2.15-6.39Z"/>
  <path d="M307.56,205.98c0-3.85,2.32-6.24,5.31-6.24,3.47,0,5.57,2.9,5.17,6.72h-8.45c.1,3.06,1.75,4.07,3.45,4.07,1.94,0,2.85-1.44,3.21-2.35l1.87.67c-.81,2.13-2.66,3.4-5.14,3.4-3.25,0-5.41-2.2-5.41-6.27ZM315.98,204.83c-.02-2.3-1.46-3.47-3.11-3.47s-3.06,1.34-3.23,3.47h6.34Z"/>
</svg>